<svg width="40" height="37" viewBox="0 0 40 37" fill="none" xmlns="http://www.w3.org/2000/svg">
<path d="M34.1405 28.254C34.2865 28.813 34.2095 29.398 33.9185 29.9C33.5335 30.572 32.8145 30.983 32.0345 30.983C31.6575 30.983 31.2805 30.888 30.9515 30.693C29.9165 30.095 29.5615 28.765 30.1595 27.73C30.5445 27.059 31.2675 26.643 32.0435 26.643C32.4205 26.643 32.7975 26.743 33.1265 26.938C33.6285 27.228 33.9845 27.696 34.1405 28.254ZM19.9985 10.132C21.1965 10.132 22.1705 9.157 22.1705 7.958C22.1705 6.762 21.1955 5.792 19.9985 5.792C18.8035 5.792 17.8285 6.762 17.8285 7.958C17.8285 9.158 18.8025 10.132 19.9985 10.132ZM38.9305 32.793C36.7345 36.601 31.8665 37.904 28.0585 35.708C26.7775 34.968 25.7765 33.919 25.1005 32.715C24.6325 31.879 23.9565 31.191 23.1255 30.71L22.6615 30.441C21.0115 29.488 18.9845 29.488 17.3385 30.441L16.8735 30.71C16.0465 31.187 15.3635 31.884 14.8985 32.715C14.2225 33.919 13.2225 34.968 11.9405 35.708C8.1335 37.904 3.2655 36.601 1.0665 32.793C-1.1295 28.99 0.174497 24.122 3.9795 21.922C5.2635 21.181 6.6695 20.839 8.0515 20.856C9.0105 20.87 9.9445 20.627 10.7755 20.146L11.2415 19.877C12.8875 18.924 13.9005 17.17 13.9005 15.273V14.731C13.9005 13.778 13.6405 12.838 13.1535 12.02C12.4475 10.829 12.0405 9.443 12.0405 7.957C12.0405 3.565 15.6055 0 19.9995 0C24.3955 0 27.9595 3.565 27.9595 7.957C27.9595 9.442 27.5535 10.829 26.8475 12.02C26.3535 12.843 26.1025 13.774 26.1025 14.731V15.273C26.1025 17.17 27.1165 18.924 28.7615 19.877L29.2255 20.146C30.0525 20.623 30.9965 20.87 31.9495 20.856C33.3315 20.839 34.7395 21.181 36.0205 21.922C39.8225 24.123 41.1305 28.991 38.9305 32.793ZM14.7925 7.958C14.7925 10.834 17.1245 13.168 19.9985 13.168C22.8735 13.168 25.2085 10.834 25.2085 7.958C25.2085 5.086 22.8735 2.751 19.9985 2.751C17.1245 2.751 14.7925 5.086 14.7925 7.958ZM11.5715 20.454C15.2875 18.739 15.5435 14.585 14.2965 11.861C12.8135 9.21 12.8795 6.841 13.2055 5.308C12.8805 6.131 12.7035 7.027 12.7035 7.959C12.7035 9.275 13.0565 10.562 13.7235 11.684C14.2735 12.607 14.5635 13.663 14.5635 14.733V15.275C14.5625 17.4 13.4165 19.388 11.5715 20.454ZM10.5625 33.322C13.0525 31.888 13.9065 28.701 12.4685 26.21C11.0305 23.72 7.8445 22.871 5.3565 24.309C2.8665 25.743 2.0125 28.931 3.4505 31.421C4.8865 33.911 8.0715 34.76 10.5625 33.322ZM22.9905 29.87C19.6495 27.501 15.9225 29.363 14.1875 31.802C12.6325 34.414 10.5495 35.54 9.0615 36.026C9.9345 35.896 10.7965 35.601 11.6055 35.133C12.7425 34.479 13.6805 33.53 14.3195 32.392C14.8435 31.456 15.6125 30.672 16.5415 30.135L17.0095 29.87C18.8525 28.8 21.1445 28.8 22.9905 29.87ZM25.7025 21.861C25.7025 18.717 23.1465 16.161 19.9975 16.161C16.8485 16.161 14.2955 18.717 14.2955 21.861C14.2955 25.014 16.8485 27.566 19.9975 27.566C23.1465 27.566 25.7025 25.014 25.7025 21.861ZM34.6425 24.308C32.1565 22.87 28.9685 23.719 27.5305 26.209C26.0925 28.7 26.9465 31.888 29.4365 33.321C31.9265 34.759 35.1105 33.91 36.5485 31.416C37.9865 28.93 37.1325 25.742 34.6425 24.308ZM37.7355 24.256C37.1805 23.568 36.4965 22.961 35.6905 22.497C34.5515 21.839 33.2605 21.501 31.9575 21.518C30.8835 21.531 29.8225 21.254 28.8915 20.717L28.4275 20.452C26.5825 19.387 25.4355 17.398 25.4355 15.272C25.0625 19.343 28.5325 21.644 31.5165 21.925C34.5515 21.965 36.5655 23.208 37.7355 24.256ZM16.9465 7.958C16.9465 6.273 18.3105 4.909 19.9975 4.909C21.6845 4.909 23.0505 6.273 23.0505 7.958C23.0505 9.647 21.6845 11.016 19.9975 11.016C18.3105 11.016 16.9465 9.647 16.9465 7.958ZM17.6075 7.958C17.6075 9.279 18.6795 10.349 19.9985 10.349C21.3195 10.349 22.3915 9.279 22.3915 7.958C22.3915 6.641 21.3195 5.567 19.9985 5.567C18.6795 5.567 17.6075 6.641 17.6075 7.958ZM7.9575 26.643C7.5785 26.643 7.2035 26.743 6.8745 26.938C5.8375 27.536 5.4815 28.865 6.0805 29.9C6.4655 30.572 7.1865 30.983 7.9625 30.983C8.3415 30.983 8.7135 30.888 9.0455 30.693C10.0805 30.095 10.4385 28.765 9.8405 27.73C9.4535 27.059 8.7305 26.643 7.9575 26.643ZM34.6855 30.342C33.8415 31.801 31.9745 32.299 30.5105 31.459C29.0555 30.614 28.5525 28.748 29.3935 27.288C30.2375 25.828 32.1045 25.326 33.5685 26.171C35.0235 27.015 35.5265 28.882 34.6855 30.342ZM34.3475 28.198C34.1835 27.579 33.7885 27.063 33.2395 26.743C32.8755 26.535 32.4605 26.423 32.0445 26.423C31.1875 26.423 30.3985 26.882 29.9655 27.618C29.3075 28.762 29.7005 30.225 30.8445 30.889C31.2085 31.096 31.6195 31.209 32.0355 31.209C32.8925 31.209 33.6855 30.75 34.1105 30.009C34.4305 29.458 34.5125 28.813 34.3475 28.198ZM9.4865 31.459C8.0245 32.299 6.1575 31.801 5.3155 30.342C4.4705 28.882 4.9715 27.015 6.4305 26.171C7.8945 25.326 9.7615 25.828 10.6035 27.288C11.4455 28.749 10.9455 30.615 9.4865 31.459ZM10.0295 27.618C9.6035 26.882 8.8105 26.423 7.9575 26.423C7.5395 26.423 7.1255 26.535 6.7625 26.743C5.6205 27.406 5.2285 28.87 5.8875 30.014C6.3145 30.75 7.1085 31.209 7.9625 31.209C8.3805 31.209 8.7915 31.096 9.1555 30.889C10.2985 30.225 10.6905 28.761 10.0295 27.618ZM19.9995 17C17.3315 17 15.1675 19.164 15.1675 21.832C15.1675 24.501 17.3315 26.664 19.9995 26.664C22.6675 26.664 24.8325 24.501 24.8325 21.832C24.8315 19.165 22.6675 17 19.9995 17Z" fill="#1400FF"/>
</svg>
